# xmcd
#
# Track frame offsets: 
#        150
#        13895
#        27722
#        43358
#        57216
#        76572
#        89275
#        103611
#        116970
#        131234
#        145428
#        159095
#        177467
#        190086
#        205993
#        218901
#        230886
#        243956
#        259256
#        273142
#
# Disc length: 3818 seconds
#
# Revision: 2
# Processed by: cddbd v1.5.2PL0 Copyright (c) Steve Scherf et al.
# Submitted via: ExactAudioCopy v0.99pb5
#
DISCID=2a0ee814
DTITLE=Vários - Sertanejão Dançante
DYEAR=2003
DGENRE=Country
TTITLE0=Rio negro e Solimões - O grito da galera
TTITLE1=Gino e Geno - O que eu to fazendo aqui
TTITLE2=Ataide e Alexandre - Chuva de mulher 
TTITLE3=Teodoro e Sampaio - Besta de Paixão
TTITLE4=Gino e Geno - Apaixonado por você
TTITLE5=Rick Nunes e Ricardi - Mulher danada
TTITLE6=Mauricio e Marcelo - Tô numa boa coma a patroa
TTITLE7=Rick e Renner - Vontade de te ver
TTITLE8=Gian e Giovani - Abre a janela
TTITLE9=Cleiton e Camargo - Acabadinho
TTITLE10=Daniel - Brasil e Samba e Forró
TTITLE11=Cesar e Paulinho - Chique no urtino
TTITLE12=Rio Negro e Solimões - Na sola da bota
TTITLE13=Guilherme e Santiago - Aonde tem sanfona, tem forró
TTITLE14=Cesar e Paulinho - Canta moçada
TTITLE15=Teodoro e Sampaio - Aqui pra ela
TTITLE16=Leonardo - Ei Pissiu
TTITLE17=Daniel - Estourou um Cnão
TTITLE18=Mauricio e Mauri - Namoro escondido
TTITLE19=Ataide e Alexandre - Tá nervoso, vai pescar
EXTD=YEAR: 2003
EXTT0=
EXTT1=
EXTT2=
EXTT3=
EXTT4=
EXTT5=
EXTT6=
EXTT7=
EXTT8=
EXTT9=
EXTT10=
EXTT11=
EXTT12=
EXTT13=
EXTT14=
EXTT15=
EXTT16=
EXTT17=
EXTT18=
EXTT19=
PLAYORDER=
